<?xml version="1.0" encoding="utf-8"?><svg viewBox="0 0 116 40" xmlns="http://www.w3.org/2000/svg" xmlns:xlink="http://www.w3.org/1999/xlink"><style>:root>svg{display:none}:root>svg:target{display:block}</style><svg fill="none" viewBox="0 0 116 28" id="apple-logo-2" xmlns="http://www.w3.org/2000/svg"><path d="M17.104 13.258a5.39 5.39 0 01.745-2.658 5.62 5.62 0 011.979-1.982 5.795 5.795 0 00-2.012-1.733 6.011 6.011 0 00-2.601-.678c-1.941-.197-3.823 1.123-4.812 1.123-1.009 0-2.531-1.104-4.171-1.071a6.298 6.298 0 00-3 .866 6.034 6.034 0 00-2.17 2.183c-2.236 3.742-.568 9.241 1.573 12.266 1.071 1.481 2.323 3.136 3.962 3.077 1.603-.064 2.202-.988 4.137-.988 1.918 0 2.48.988 4.151.95 1.72-.026 2.804-1.487 3.838-2.982a12.09 12.09 0 001.755-3.456 5.489 5.489 0 01-2.452-1.967c-.6-.875-.92-1.9-.922-2.95zM13.947 4.217a5.327 5.327 0 001.288-3.9 5.797 5.797 0 00-3.708 1.854 5.142 5.142 0 00-1.047 1.751 5.021 5.021 0 00-.275 2.006 4.875 4.875 0 002.074-.44 4.717 4.717 0 001.668-1.27zM37.37 20.901H31.9l-1.314 3.752h-2.318l5.182-13.879h2.408l5.182 13.879h-2.357L37.371 20.9zm-4.904-1.73h4.337l-2.138-6.088h-.06l-2.139 6.088zM52.232 19.594c0 3.144-1.74 5.165-4.367 5.165a3.648 3.648 0 01-1.91-.428 3.49 3.49 0 01-1.383-1.343h-.05V28h-2.148V14.534h2.08v1.683h.04a3.657 3.657 0 011.41-1.339 3.815 3.815 0 011.921-.45c2.656 0 4.407 2.03 4.407 5.166zm-2.208 0c0-2.048-1.095-3.395-2.765-3.395-1.641 0-2.745 1.375-2.745 3.395 0 2.039 1.104 3.404 2.745 3.404 1.67 0 2.765-1.337 2.765-3.404zM63.75 19.594c0 3.144-1.74 5.165-4.367 5.165a3.647 3.647 0 01-1.909-.428 3.49 3.49 0 01-1.383-1.343h-.05V28h-2.148V14.534h2.08v1.683h.039a3.657 3.657 0 011.41-1.339 3.815 3.815 0 011.922-.45c2.656 0 4.407 2.03 4.407 5.166zm-2.207 0c0-2.048-1.095-3.395-2.766-3.395-1.64 0-2.745 1.375-2.745 3.395 0 2.039 1.104 3.404 2.745 3.404 1.671 0 2.766-1.337 2.766-3.404zM71.363 20.786c.16 1.376 1.542 2.28 3.431 2.28 1.811 0 3.114-.904 3.114-2.145 0-1.077-.786-1.722-2.646-2.164l-1.86-.434c-2.636-.615-3.86-1.807-3.86-3.74 0-2.395 2.159-4.04 5.223-4.04 3.033 0 5.112 1.645 5.182 4.04H77.78c-.13-1.386-1.314-2.222-3.044-2.222s-2.915.846-2.915 2.077c0 .981.756 1.559 2.607 2l1.58.376c2.946.673 4.17 1.817 4.17 3.847 0 2.596-2.14 4.223-5.542 4.223-3.183 0-5.332-1.588-5.47-4.098h2.198zM84.813 12.14v2.394h1.99v1.645h-1.99v5.578c0 .866.398 1.27 1.273 1.27.236-.004.472-.02.707-.048v1.635a6.093 6.093 0 01-1.194.096c-2.118 0-2.945-.77-2.945-2.732v-5.8h-1.521v-1.644h1.521V12.14h2.159zM87.956 19.594c0-3.184 1.939-5.184 4.963-5.184 3.034 0 4.964 2 4.964 5.184 0 3.192-1.92 5.184-4.964 5.184-3.043 0-4.963-1.992-4.963-5.184zm7.739 0c0-2.184-1.036-3.473-2.776-3.473-1.74 0-2.775 1.299-2.775 3.473 0 2.192 1.034 3.471 2.775 3.471 1.74 0 2.776-1.279 2.776-3.471zM99.653 14.534h2.049v1.723h.05a2.404 2.404 0 01.923-1.347 2.553 2.553 0 011.594-.482c.248 0 .494.026.736.078v1.943a3.098 3.098 0 00-.965-.126 2.23 2.23 0 00-.912.156 2.159 2.159 0 00-.761.51 2.068 2.068 0 00-.471.771c-.098.287-.13.591-.095.891v6.002h-2.148V14.534zM114.909 21.68c-.289 1.837-2.139 3.098-4.506 3.098-3.044 0-4.934-1.972-4.934-5.136 0-3.174 1.9-5.232 4.844-5.232 2.895 0 4.716 1.923 4.716 4.99v.712h-7.391v.126a2.56 2.56 0 00.141 1.1c.127.353.331.676.597.947.267.271.589.484.947.625.358.142.743.207 1.13.194a2.432 2.432 0 001.452-.325c.436-.256.774-.641.965-1.099h2.039zm-7.261-3.02h5.232a2.364 2.364 0 00-.154-.984 2.426 2.426 0 00-.549-.842 2.52 2.52 0 00-.852-.559 2.592 2.592 0 00-1.012-.182 2.723 2.723 0 00-1.02.19 2.659 2.659 0 00-.866.557 2.56 2.56 0 00-.578.835 2.481 2.481 0 00-.201.986zM32.197.329c.45-.031.902.034 1.323.192.42.159.8.405 1.11.722.311.317.545.696.685 1.111.14.415.184.855.127 1.288 0 2.13-1.19 3.355-3.245 3.355h-2.491V.33h2.49zm-1.42 5.725h1.3c.322.019.644-.032.943-.15.299-.116.567-.296.785-.526.218-.23.38-.503.474-.801.095-.298.12-.613.073-.921.043-.307.016-.62-.08-.916a2.086 2.086 0 00-.476-.795 2.177 2.177 0 00-.781-.523 2.241 2.241 0 00-.938-.15h-1.3v4.782zM36.652 4.478a2.31 2.31 0 01.115-.98c.109-.315.284-.604.515-.85.231-.246.513-.443.827-.577a2.538 2.538 0 011.995 0c.315.134.596.33.828.577.23.246.406.535.514.85.109.316.148.65.115.98.034.331-.005.665-.113.981a2.366 2.366 0 01-.515.853 2.466 2.466 0 01-.827.578 2.539 2.539 0 01-1.998 0 2.466 2.466 0 01-.828-.578 2.368 2.368 0 01-.514-.853 2.312 2.312 0 01-.114-.98zm3.853 0c0-1.09-.507-1.728-1.397-1.728-.892 0-1.395.637-1.395 1.728 0 1.1.503 1.733 1.395 1.733.89 0 1.397-.638 1.397-1.733zM48.087 6.997H47.02L45.945 3.29h-.08l-1.072 3.707h-1.056l-1.434-5.033h1.042l.932 3.84h.077l1.07-3.84h.985l1.07 3.84h.082l.928-3.84h1.027l-1.43 5.033zM50.722 1.964h.989v.8h.077c.13-.287.35-.528.628-.689.278-.16.602-.233.925-.208.253-.018.508.019.744.108.236.09.45.23.622.41.173.18.302.394.377.629.076.234.096.482.058.725v3.258h-1.027V3.988c0-.808-.363-1.21-1.123-1.21a1.23 1.23 0 00-.503.082c-.16.063-.303.158-.421.279a1.12 1.12 0 00-.318.914v2.944h-1.028V1.964zM56.78 0h1.027v6.997H56.78V0zM59.235 4.478a2.31 2.31 0 01.115-.98c.108-.315.284-.604.515-.85.23-.246.513-.443.827-.577a2.538 2.538 0 011.995 0c.315.134.596.33.827.577.231.246.407.535.515.85.109.316.148.65.115.98a2.31 2.31 0 01-.113.981 2.368 2.368 0 01-.515.853 2.466 2.466 0 01-.828.578 2.539 2.539 0 01-1.997 0 2.465 2.465 0 01-.828-.578 2.37 2.37 0 01-.515-.853 2.31 2.31 0 01-.113-.98zm3.852 0c0-1.09-.507-1.728-1.396-1.728-.893 0-1.395.638-1.395 1.728 0 1.1.502 1.733 1.395 1.733.89 0 1.396-.637 1.396-1.733zM65.226 5.574c0-.906.697-1.429 1.936-1.503l1.41-.078v-.435c0-.531-.364-.831-1.066-.831-.574 0-.971.203-1.085.559h-.995c.105-.864.946-1.419 2.127-1.419 1.305 0 2.041.628 2.041 1.691v3.439h-.989v-.708h-.081a1.73 1.73 0 01-.671.6 1.8 1.8 0 01-.892.19c-.219.023-.44 0-.649-.066a1.585 1.585 0 01-.564-.314 1.524 1.524 0 01-.385-.51 1.477 1.477 0 01-.137-.615zm3.345-.43v-.421l-1.27.078c-.718.047-1.043.282-1.043.726 0 .453.407.717.966.717a1.267 1.267 0 00.915-.274c.125-.103.229-.229.303-.37.074-.143.118-.298.13-.456zM70.944 4.479c0-1.59.846-2.598 2.16-2.598.326-.014.649.06.932.217.282.157.513.387.665.666h.077V0h1.027v6.997h-.984v-.795h-.082a1.778 1.778 0 01-.69.66c-.288.154-.615.23-.944.218-1.324 0-2.16-1.008-2.16-2.601zm1.061 0c0 1.067.52 1.71 1.391 1.71.866 0 1.4-.652 1.4-1.706 0-1.049-.54-1.71-1.4-1.71-.865 0-1.39.647-1.39 1.706zM80.055 4.478a2.31 2.31 0 01.114-.98c.109-.315.284-.604.515-.85.232-.246.513-.443.828-.577a2.538 2.538 0 011.995 0c.314.134.596.33.827.577.23.246.406.535.515.85.108.316.147.65.115.98a2.31 2.31 0 01-.114.981 2.368 2.368 0 01-.514.853 2.465 2.465 0 01-.828.578 2.538 2.538 0 01-1.998 0 2.465 2.465 0 01-.827-.578 2.369 2.369 0 01-.515-.853 2.309 2.309 0 01-.113-.98zm3.852 0c0-1.09-.507-1.728-1.396-1.728-.893 0-1.395.637-1.395 1.728 0 1.1.502 1.733 1.395 1.733.89 0 1.396-.638 1.396-1.733zM86.342 1.964h.99v.8h.076c.13-.287.35-.528.628-.689.278-.16.602-.233.925-.208.253-.018.508.019.744.108.237.09.45.23.622.41.173.18.302.394.378.629.075.234.095.482.058.725v3.258h-1.028V3.988c0-.808-.363-1.21-1.123-1.21a1.23 1.23 0 00-.503.082c-.16.063-.303.158-.421.279a1.12 1.12 0 00-.318.914v2.944h-1.028V1.964zM96.566.711v1.276h1.128v.837h-1.128V5.41c0 .528.225.758.736.758.13 0 .262-.008.392-.022v.827a3.483 3.483 0 01-.56.05c-1.141 0-1.596-.388-1.596-1.358V2.824h-.827v-.837h.827V.711h1.028zM99.098 0h1.018v2.773h.081a1.57 1.57 0 01.646-.693c.284-.161.613-.234.941-.208a1.77 1.77 0 01.738.119c.234.092.444.232.615.411a1.615 1.615 0 01.44 1.346v3.249h-1.029V3.993c0-.804-.387-1.211-1.113-1.211a1.254 1.254 0 00-.962.343 1.18 1.18 0 00-.281.43c-.06.16-.083.332-.067.503v2.939h-1.027V0zM109.566 5.638c-.139.46-.442.858-.854 1.124a2.169 2.169 0 01-1.401.332 2.436 2.436 0 01-.999-.186 2.364 2.364 0 01-.825-.575 2.23 2.23 0 01-.581-1.837 2.257 2.257 0 01.083-.982c.1-.319.269-.612.497-.862.227-.249.508-.448.822-.583.314-.136.654-.205.998-.202 1.449 0 2.322.957 2.322 2.537v.347h-3.675v.055a1.299 1.299 0 00.363 1.018 1.416 1.416 0 001.023.424c.246.029.495-.014.715-.123.221-.108.403-.278.523-.487h.989zm-3.613-1.622h2.629a1.175 1.175 0 00-.07-.498 1.218 1.218 0 00-.701-.713 1.287 1.287 0 00-.51-.092 1.347 1.347 0 00-.959.377 1.293 1.293 0 00-.291.425c-.067.159-.1.33-.098.501z" fill="#fff"/></svg><svg fill="none" viewBox="0 0 12 12" id="chevron" xmlns="http://www.w3.org/2000/svg"><path d="M1 3.5l5 5 5-5" stroke="#333" stroke-width="2" stroke-linecap="round" stroke-linejoin="round"/></svg><svg fill="none" viewBox="0 0 26 26" id="flags" xmlns="http://www.w3.org/2000/svg"><g clip-path="url(#cclip0_902_1316)"><path d="M13 26c7.18 0 13-5.82 13-13S20.18 0 13 0 0 5.82 0 13s5.82 13 13 13z" fill="#F0F0F0"/><path d="M12.435 13H26c0-1.173-.156-2.31-.448-3.391H12.435V13zM12.435 6.218h11.657a13.068 13.068 0 00-3-3.392h-8.657v3.392zM13 26c3.06 0 5.872-1.058 8.092-2.826H4.908A12.944 12.944 0 0013 26zM1.908 19.783h22.184a12.92 12.92 0 001.46-3.391H.448c.326 1.209.821 2.348 1.46 3.39z" fill="#D80027"/><path d="M6.022 2.03h1.185l-1.102.8.42 1.296-1.101-.8-1.102.8.363-1.119c-.97.808-1.82 1.755-2.521 2.81h.38l-.702.51c-.11.182-.214.367-.315.555l.335 1.031-.624-.454c-.156.33-.298.666-.426 1.01l.37 1.135h1.361l-1.101.8.42 1.296-1.101-.8-.66.479C.033 11.91 0 12.451 0 13h13V0c-2.568 0-4.962.745-6.978 2.03zm.503 9.67l-1.101-.8-1.102.8.42-1.295-1.101-.8h1.362l.42-1.296.421 1.295h1.363l-1.102.8.42 1.296zm-.42-5.082l.42 1.295-1.101-.8-1.102.8.42-1.295-1.101-.8h1.362l.42-1.296.421 1.295h1.363l-1.102.8zm5.083 5.082l-1.101-.8-1.102.8.42-1.295-1.101-.8h1.362l.42-1.296.421 1.295h1.363l-1.102.8.42 1.296zm-.42-5.082l.42 1.295-1.101-.8-1.102.8.42-1.295-1.101-.8h1.362l.42-1.296.421 1.295h1.363l-1.102.8zm0-3.787l.42 1.295-1.101-.8-1.102.8.42-1.295-1.101-.8h1.362l.42-1.296.421 1.295h1.363l-1.102.8z" fill="#0052B4"/></g><defs><clipPath id="cclip0_902_1316"><path fill="#fff" d="M0 0h26v26H0z"/></clipPath></defs></svg><svg fill="none" viewBox="0 0 109 29" id="google-logo-2" xmlns="http://www.w3.org/2000/svg"><path d="M35.226 4.468c0 .864-.235 1.554-.705 2.058-.526.607-1.222.916-2.068.916-.817 0-1.503-.309-2.077-.926-.573-.618-.855-1.39-.855-2.295 0-.916.282-1.677.855-2.295C30.95 1.31 31.637 1 32.453 1c.405 0 .79.082 1.156.257.367.175.658.402.884.69l-.498.545c-.376-.484-.884-.73-1.541-.73-.593 0-1.11.226-1.542.689-.432.453-.648 1.05-.648 1.78s.216 1.328.648 1.78c.433.453.95.69 1.541.69.63 0 1.156-.227 1.58-.69.272-.298.432-.72.47-1.255h-2.05v-.74h2.735c.02.153.038.308.038.452zM39.559 1.895h-2.566V3.85h2.312v.741h-2.312v1.956h2.566v.761h-3.29V1.134h3.29v.761zM42.613 7.308h-.724V1.895H40.31v-.761h3.872v.761h-1.579v5.413h.01zM46.992 7.308V1.134h.724v6.174h-.724zM50.93 7.308h-.723V1.895h-1.58v-.761H52.5v.761h-1.58v5.413h.01zM59.84 6.505c-.555.628-1.24.937-2.068.937-.827 0-1.513-.309-2.067-.937-.555-.627-.827-1.389-.827-2.284 0-.895.272-1.667.827-2.285.554-.627 1.24-.936 2.067-.936.818 0 1.504.309 2.068.936.554.628.836 1.39.836 2.285-.009.905-.282 1.667-.836 2.284zm-3.6-.514c.414.463.93.69 1.532.69s1.119-.227 1.532-.69c.414-.463.63-1.05.63-1.77s-.207-1.307-.63-1.77a1.977 1.977 0 00-1.532-.69c-.601 0-1.118.227-1.532.69-.413.463-.63 1.05-.63 1.77s.217 1.307.63 1.77zM61.691 7.308V1.134h.884l2.744 4.805h.028l-.028-1.193V1.134h.724v6.174h-.752l-2.867-5.032h-.028l.028 1.194v3.838h-.733z" fill="#fff" stroke="#fff" stroke-width=".2" stroke-miterlimit="10"/><path d="M54.699 16.312c-2.209 0-4.013 1.842-4.013 4.373 0 2.522 1.804 4.374 4.013 4.374 2.209 0 4.013-1.852 4.013-4.373 0-2.532-1.804-4.374-4.013-4.374zm0 7.028c-1.212 0-2.256-1.09-2.256-2.654 0-1.575 1.044-2.655 2.256-2.655 1.212 0 2.256 1.08 2.256 2.655 0 1.564-1.053 2.654-2.256 2.654zm-8.76-7.028c-2.208 0-4.012 1.842-4.012 4.373 0 2.522 1.804 4.374 4.013 4.374 2.208 0 4.013-1.852 4.013-4.373 0-2.532-1.805-4.374-4.013-4.374zm0 7.028c-1.212 0-2.255-1.09-2.255-2.654 0-1.575 1.043-2.655 2.256-2.655 1.212 0 2.255 1.08 2.255 2.655 0 1.564-1.043 2.654-2.255 2.654zm-10.412-5.68v1.852h4.06c-.123 1.04-.442 1.811-.921 2.336-.592.649-1.513 1.359-3.13 1.359-2.5 0-4.455-2.203-4.455-4.94 0-2.737 1.955-4.94 4.455-4.94 1.344 0 2.33.577 3.054 1.328l1.194-1.307c-1.015-1.06-2.359-1.872-4.257-1.872-3.421 0-6.297 3.045-6.297 6.801 0 3.746 2.876 6.802 6.297 6.802 1.851 0 3.242-.658 4.332-1.903 1.118-1.225 1.466-2.954 1.466-4.343a6.13 6.13 0 00-.094-1.163h-5.704v-.01zM78.11 19.1c-.329-.977-1.344-2.788-3.42-2.788-2.06 0-3.77 1.77-3.77 4.373 0 2.45 1.692 4.374 3.966 4.374 1.833 0 2.895-1.225 3.327-1.935l-1.362-.998c-.451.73-1.072 1.214-1.965 1.214-.892 0-1.531-.452-1.936-1.327l5.348-2.418-.188-.494zm-5.451 1.462c-.047-1.688 1.194-2.552 2.086-2.552.696 0 1.288.38 1.485.926l-3.571 1.626zm-4.342 4.24h1.758V11.939h-1.758v12.863zm-2.876-7.512h-.066c-.394-.515-1.146-.978-2.105-.978-2.002 0-3.834 1.924-3.834 4.394 0 2.45 1.832 4.363 3.834 4.363.95 0 1.71-.463 2.105-.998h.057v.628c0 1.677-.818 2.572-2.134 2.572-1.071 0-1.738-.844-2.01-1.554l-1.533.7C60.197 27.58 61.362 29 63.298 29c2.059 0 3.797-1.327 3.797-4.559V16.58h-1.663v.71h.01zm-2.02 6.05c-1.213 0-2.228-1.111-2.228-2.634 0-1.543 1.015-2.665 2.228-2.665 1.193 0 2.133 1.132 2.133 2.665.01 1.523-.93 2.634-2.133 2.634zM86.343 11.94h-4.201v12.863h1.757v-4.878h2.453c1.946 0 3.854-1.544 3.854-3.993s-1.927-3.992-3.863-3.992zm.037 6.194h-2.49V13.72h2.49c1.316 0 2.059 1.194 2.059 2.202 0 1.009-.743 2.212-2.058 2.212zm10.846-1.841c-1.269 0-2.585.617-3.13 1.965l1.56.71c.33-.71.95-.947 1.598-.947.902 0 1.833.597 1.842 1.657v.134a3.662 3.662 0 00-1.832-.494c-1.683 0-3.384 1.008-3.384 2.891 0 1.719 1.372 2.83 2.914 2.83 1.175 0 1.832-.576 2.237-1.255h.056v.998h1.692v-4.93c.009-2.284-1.551-3.56-3.553-3.56zm-.216 7.048c-.573 0-1.372-.319-1.372-1.09 0-.988.996-1.369 1.86-1.369.771 0 1.138.185 1.598.432-.131 1.184-1.071 2.027-2.086 2.027zm9.943-6.77l-2.011 5.577h-.056l-2.087-5.578h-1.889l3.13 7.8-1.786 4.333h1.833l4.821-12.133h-1.955zm-15.789 8.232h1.758V11.939h-1.758v12.863z" fill="#fff"/><path d="M.47 1.69c-.272.318-.432.812-.432 1.44v22.762c0 .638.16 1.132.433 1.44l.065.073 11.645-12.74v-.308L.536 1.617l-.065.072z" fill="url(#dpaint0_linear_928_155)"/><path d="M16.062 18.916l-3.881-4.25v-.309l3.881-4.25.085.051 4.596 2.861c1.316.813 1.316 2.15 0 2.974l-4.596 2.86-.085.063z" fill="url(#dpaint1_linear_928_155)"/><path d="M16.147 18.854l-3.966-4.343L.471 27.333c.432.504 1.147.566 1.955.062l13.721-8.541z" fill="url(#dpaint2_linear_928_155)"/><path d="M16.147 10.168l-13.73-8.54c-.809-.505-1.523-.443-1.955.061l11.72 12.822 3.965-4.342z" fill="url(#dpaint3_linear_928_155)"/><path opacity=".2" d="M16.063 18.761l-13.646 8.49c-.761.473-1.447.442-1.88.01l-.066.072.066.072c.442.432 1.119.463 1.88-.01l13.73-8.541-.084-.093z" fill="#2E3A59"/><path opacity=".12" d="M.471 27.19C.2 26.87.04 26.375.04 25.747v.155c0 .638.16 1.132.432 1.44l.066-.072-.066-.082zM20.743 15.849l-4.69 2.912.085.093 4.595-2.861c.658-.412.987-.947.987-1.482-.047.484-.376.968-.977 1.338z" fill="#2E3A59"/><path opacity=".25" d="M2.416 1.772l18.327 11.402c.592.37.93.843.987 1.337 0-.535-.33-1.08-.987-1.481L2.416 1.628C1.1.815.03 1.494.03 3.14v.155c0-1.657 1.08-2.336 2.387-1.523z" fill="#fff"/><defs><linearGradient id="dpaint0_linear_928_155" x1="11.147" y1="2.893" x2="-6.052" y2="18.601" gradientUnits="userSpaceOnUse"><stop stop-color="#00A0FF"/><stop offset=".007" stop-color="#00A1FF"/><stop offset=".26" stop-color="#00BEFF"/><stop offset=".512" stop-color="#00D2FF"/><stop offset=".76" stop-color="#00DFFF"/><stop offset="1" stop-color="#00E3FF"/></linearGradient><linearGradient id="dpaint1_linear_928_155" x1="22.457" y1="14.513" x2="-.284" y2="14.513" gradientUnits="userSpaceOnUse"><stop stop-color="#FFE000"/><stop offset=".409" stop-color="#FFBD00"/><stop offset=".775" stop-color="orange"/><stop offset="1" stop-color="#FF9C00"/></linearGradient><linearGradient id="dpaint2_linear_928_155" x1="13.992" y1="16.874" x2="-9.331" y2="38.175" gradientUnits="userSpaceOnUse"><stop stop-color="#FF3A44"/><stop offset="1" stop-color="#C31162"/></linearGradient><linearGradient id="dpaint3_linear_928_155" x1="-2.483" y1="-5.888" x2="7.932" y2="3.623" gradientUnits="userSpaceOnUse"><stop stop-color="#32A071"/><stop offset=".069" stop-color="#2DA771"/><stop offset=".476" stop-color="#15CF74"/><stop offset=".801" stop-color="#06E775"/><stop offset="1" stop-color="#00F076"/></linearGradient></defs></svg><svg fill="none" viewBox="0 0 10 10" id="icon" xmlns="http://www.w3.org/2000/svg"><path d="M8.333 2.917L3.89 7.5 1.667 5.208" stroke="#00B9B6" stroke-width="2" stroke-linecap="round" stroke-linejoin="round"/></svg><svg fill="none" viewBox="0 0 22 16" id="icon-arrow" xmlns="http://www.w3.org/2000/svg"><path d="M1 8h20m0 0l-8 7m8-7l-8-7" stroke="#00B9B6" stroke-width="2" stroke-linecap="round" stroke-linejoin="round"/></svg><svg fill="none" viewBox="0 0 24 24" id="mail" xmlns="http://www.w3.org/2000/svg"><path d="M22 18.222V7.556s-9.1 7.526-9.985 7.916C11.145 15.099 2 7.556 2 7.556v10.666C2 19.704 2.265 20 3.5 20h17c1.265 0 1.5-.26 1.5-1.778zm-.015-12.758C21.985 4.385 21.72 4 20.5 4h-17C2.245 4 2 4.462 2 5.54l.015.167s9.034 7.372 10 7.775C13.035 13.013 22 5.54 22 5.54l-.015-.077z" fill="#00B9B6"/></svg><svg fill="none" viewBox="0 0 24 24" id="pin" xmlns="http://www.w3.org/2000/svg"><path d="M12 2C8.133 2 5 4.788 5 8.241 5 14.213 12 22 12 22s7-7.789 7-13.759C19 4.79 15.867 2 12 2zm0 9.695c-1.002 0-1.964-.356-2.673-.99-.709-.633-1.107-1.492-1.107-2.387 0-.896.398-1.755 1.107-2.388.709-.634 1.67-.99 2.673-.99 1.002 0 1.964.356 2.673.99.709.633 1.107 1.492 1.107 2.388 0 .895-.398 1.754-1.107 2.388-.709.633-1.67.989-2.673.989z" fill="#00B9B6"/></svg><svg fill="none" viewBox="0 0 40 40" id="social-icon--fb" xmlns="http://www.w3.org/2000/svg"><path d="M34.14 0H5.86A5.866 5.866 0 000 5.86v28.28C0 37.372 2.629 40 5.86 40h11.796V25.86H12.97v-7.032h4.687v-4.765a7.039 7.039 0 017.032-7.032h7.109v7.032h-7.11v4.765h7.11l-1.172 7.031h-5.938V40h9.454C37.37 40 40 37.371 40 34.14V5.86C40 2.628 37.371 0 34.14 0z" fill="#365089"/></svg><svg fill="none" viewBox="0 0 40 40" id="social-icon--in" xmlns="http://www.w3.org/2000/svg"><path d="M34.14 0H5.86A5.866 5.866 0 000 5.86v28.28C0 37.372 2.629 40 5.86 40h28.28c3.231 0 5.86-2.629 5.86-5.86V5.86C40 2.628 37.371 0 34.14 0zm-20 31.719H9.454V15.312h4.688V31.72zm0-18.75H9.454V8.28h4.688v4.688zm16.407 18.75h-4.688v-9.375A2.347 2.347 0 0023.516 20a2.347 2.347 0 00-2.344 2.344v9.375h-4.688V15.312h4.688v.884c1.228-.382 2.026-.884 3.515-.884 3.18.004 5.86 2.856 5.86 6.226v10.18z" fill="#0172B4"/></svg><svg fill="none" viewBox="0 0 40 40" id="social-icon--instagram" xmlns="http://www.w3.org/2000/svg"><g clip-path="url(#kclip0_1_225)"><path d="M2.5 2.722C-.643 5.987 0 9.455 0 19.992c0 8.75-1.527 17.521 6.463 19.586 2.495.642 24.602.642 27.093-.003 3.327-.858 6.034-3.557 6.404-8.262.051-.656.051-21.975-.002-22.645-.393-5.011-3.478-7.9-7.543-8.485C31.483.048 31.297.008 26.517 0 9.562.008 5.845-.747 2.5 2.722z" fill="url(#kpaint0_linear_1_225)"/><path d="M19.997 5.232c-6.052 0-11.799-.539-13.994 5.094-.906 2.327-.775 5.349-.775 9.675 0 3.797-.121 7.365.775 9.674 2.19 5.637 7.984 5.097 13.99 5.097 5.795 0 11.77.603 13.992-5.097.908-2.35.775-5.327.775-9.674 0-5.77.318-9.495-2.48-12.291-2.833-2.833-6.665-2.478-12.29-2.478h.007zm-1.324 2.661c12.624-.02 14.23-1.423 13.344 18.072-.315 6.895-5.565 6.138-12.019 6.138-11.766 0-12.105-.337-12.105-12.108 0-11.908.934-12.095 10.78-12.105v.003zm9.207 2.452a1.772 1.772 0 100 3.544 1.772 1.772 0 000-3.544zm-7.883 2.071a7.585 7.585 0 000 15.169A7.582 7.582 0 0027.578 20a7.583 7.583 0 00-7.581-7.585zm0 2.662c6.508 0 6.516 9.847 0 9.847-6.507 0-6.517-9.847 0-9.847z" fill="#fff"/></g><defs><linearGradient id="kpaint0_linear_1_225" x1="2.577" y1="37.445" x2="39.752" y2="5.27" gradientUnits="userSpaceOnUse"><stop stop-color="#FD5"/><stop offset=".5" stop-color="#FF543E"/><stop offset="1" stop-color="#C837AB"/></linearGradient><clipPath id="kclip0_1_225"><path fill="#fff" d="M0 0h40v40H0z"/></clipPath></defs></svg><svg fill="none" viewBox="0 0 40 40" id="social-icon--tw" xmlns="http://www.w3.org/2000/svg"><path d="M29.945 0H10.024C4.504 0 0 4.508 0 10.032V30c0 5.492 4.504 10 10.024 10h19.952C35.496 40 40 35.492 40 29.968V10.032C39.968 4.508 35.464 0 29.945 0zm-.032 14.984v.667c0 6.666-5.139 14.349-14.56 14.349-2.887 0-5.583-.825-7.835-2.254.412.032.793.064 1.205.064 2.411 0 4.6-.794 6.344-2.16a5.111 5.111 0 01-4.79-3.491c.318.063.635.095.952.095.476 0 .952-.064 1.364-.19-2.284-.477-4.028-2.508-4.028-4.953v-.063c.634.38 1.459.603 2.284.635a5.022 5.022 0 01-2.284-4.19c0-.922.253-1.779.697-2.54a14.65 14.65 0 0010.532 5.27 4.68 4.68 0 01-.127-1.144c0-2.793 2.284-5.047 5.107-5.047 1.46 0 2.791.603 3.743 1.587a9.52 9.52 0 003.236-1.238c-.381 1.175-1.206 2.159-2.253 2.794 1.047-.127 2.03-.381 2.95-.794a10.42 10.42 0 01-2.537 2.603z" fill="#1EA5DD"/></svg><svg fill="none" viewBox="0 0 14 14" id="star" xmlns="http://www.w3.org/2000/svg"><path d="M12.817 5.597a.347.347 0 00-.276-.244l-3.617-.551-1.617-3.436a.34.34 0 00-.307-.2.34.34 0 00-.306.2L5.076 4.802l-3.617.55a.347.347 0 00-.276.245.37.37 0 00.087.367l2.617 2.674-.618 3.776c-.022.135.031.27.136.35a.331.331 0 00.36.028L7 11.009l3.235 1.783a.328.328 0 00.36-.027.366.366 0 00.136-.35l-.618-3.777 2.617-2.674a.37.37 0 00.087-.367z" fill="#FFA800"/></svg></svg>