<svg width="14" height="14" viewBox="0 0 14 14" fill="none" xmlns="http://www.w3.org/2000/svg">
<path d="M12.8167 5.59664C12.7765 5.46691 12.6695 5.37236 12.5408 5.35278L8.92407 4.80182L7.30658 1.36622C7.24902 1.24392 7.13019 1.1665 7.0001 1.1665C6.86999 1.1665 6.75118 1.24392 6.6936 1.36622L5.07604 4.80182L1.45939 5.35278C1.33067 5.37236 1.22369 5.46691 1.18349 5.59662C1.14328 5.72635 1.17682 5.86874 1.26999 5.96393L3.88696 8.63817L3.26927 12.4143C3.24725 12.5487 3.29998 12.6846 3.40523 12.7648C3.46477 12.8101 3.5353 12.8332 3.60616 12.8332C3.66058 12.8332 3.71517 12.8196 3.76517 12.792L7.00008 11.0091L10.2349 12.792C10.35 12.8555 10.4896 12.8449 10.5948 12.7647C10.7001 12.6846 10.7528 12.5487 10.7308 12.4143L10.1129 8.63817L12.7302 5.9639C12.8233 5.86874 12.8569 5.72635 12.8167 5.59664Z" fill="#FFA800"/>
</svg>
